<?xml version="1.0" ?><svg data-name="Layer 2" id="aba10a1f-b7e1-4da3-b2dc-2127b71637f6" viewBox="0 0 38 38" xmlns="http://www.w3.org/2000/svg"><path d="M13.357,27.441a3.467,3.467,0,0,1-1.483-.321,2.852,2.852,0,0,1-1.121-.925.891.891,0,0,1-.168-.489.748.748,0,0,1,.273-.588.827.827,0,0,1,.539-.239.777.777,0,0,1,.414.126,2.062,2.062,0,0,1,.37.294,1.845,1.845,0,0,0,.553.358,1.754,1.754,0,0,0,.623.1,1.55,1.55,0,0,0,.785-.21,1.681,1.681,0,0,0,.587-.559,1.384,1.384,0,0,0,.225-.757v-5.88a.793.793,0,0,1,.265-.608.88.88,0,0,1,.616-.246.83.83,0,0,1,.869.854v5.88a2.958,2.958,0,0,1-.449,1.582,3.463,3.463,0,0,1-1.2,1.177A3.266,3.266,0,0,1,13.357,27.441Z"/><path d="M13.358,27.565a3.6,3.6,0,0,1-1.538-.333,2.983,2.983,0,0,1-1.168-.964,1.017,1.017,0,0,1-.191-.563.954.954,0,0,1,1.416-.807,2.215,2.215,0,0,1,.393.313,1.714,1.714,0,0,0,.509.329,1.59,1.59,0,0,0,1.3-.1,1.561,1.561,0,0,0,.544-.518,1.248,1.248,0,0,0,.205-.69V18.355a.917.917,0,0,1,.306-.7,1.009,1.009,0,0,1,.7-.278.953.953,0,0,1,.993.979v5.879a3.093,3.093,0,0,1-.467,1.648A3.612,3.612,0,0,1,15.115,27.1,3.4,3.4,0,0,1,13.358,27.565ZM11.4,25a.709.709,0,0,0-.457.207.625.625,0,0,0-.23.494.763.763,0,0,0,.147.42,2.724,2.724,0,0,0,1.069.881,3.35,3.35,0,0,0,1.431.309,3.146,3.146,0,0,0,1.629-.429,3.36,3.36,0,0,0,1.162-1.135,2.85,2.85,0,0,0,.43-1.517V18.355a.7.7,0,0,0-.743-.729.754.754,0,0,0-.532.212.671.671,0,0,0-.225.517v5.879a1.514,1.514,0,0,1-.244.825,1.823,1.823,0,0,1-.631.6,1.675,1.675,0,0,1-.846.227,1.868,1.868,0,0,1-.668-.113,1.991,1.991,0,0,1-.592-.381,1.963,1.963,0,0,0-.353-.281A.651.651,0,0,0,11.4,25Z"/><path d="M21.954,27.441a5.887,5.887,0,0,1-1.765-.245,4.221,4.221,0,0,1-1.5-.861,1.091,1.091,0,0,1-.279-.35.86.86,0,0,1-.1-.392.806.806,0,0,1,.231-.567.766.766,0,0,1,.581-.244.739.739,0,0,1,.477.168,4.448,4.448,0,0,0,1.056.657,3.312,3.312,0,0,0,1.3.225,2.7,2.7,0,0,0,.951-.162,1.852,1.852,0,0,0,.7-.434.868.868,0,0,0,.267-.623,1.06,1.06,0,0,0-.252-.714,1.934,1.934,0,0,0-.77-.5,5.983,5.983,0,0,0-1.317-.315,5.928,5.928,0,0,1-1.329-.342,3.115,3.115,0,0,1-.959-.588,2.325,2.325,0,0,1-.581-.841,2.854,2.854,0,0,1-.2-1.085,2.569,2.569,0,0,1,.47-1.554A2.928,2.928,0,0,1,20.2,17.7a4.476,4.476,0,0,1,1.763-.337,5.08,5.08,0,0,1,1.687.273,3.9,3.9,0,0,1,1.267.694.933.933,0,0,1,.407.741.8.8,0,0,1-.239.56.745.745,0,0,1-.56.252.616.616,0,0,1-.378-.126,2.554,2.554,0,0,0-.6-.371,5.437,5.437,0,0,0-.8-.294,2.9,2.9,0,0,0-.784-.119,2.932,2.932,0,0,0-1.014.154,1.383,1.383,0,0,0-.623.42.963.963,0,0,0-.21.617,1,1,0,0,0,.244.692,1.666,1.666,0,0,0,.707.435,8.231,8.231,0,0,0,1.106.287,11.128,11.128,0,0,1,1.477.363,3.468,3.468,0,0,1,1.057.539,2.038,2.038,0,0,1,.63.826,3.113,3.113,0,0,1,.21,1.211,2.5,2.5,0,0,1-.5,1.568,3.218,3.218,0,0,1-1.322,1.008A4.453,4.453,0,0,1,21.954,27.441Z"/><path d="M21.954,27.565a6.013,6.013,0,0,1-1.8-.251,4.352,4.352,0,0,1-1.542-.884,1.213,1.213,0,0,1-.31-.39.985.985,0,0,1-.111-.447.936.936,0,0,1,.264-.654.894.894,0,0,1,.673-.283.865.865,0,0,1,.554.2,4.3,4.3,0,0,0,1.027.639,3.191,3.191,0,0,0,1.247.215,2.621,2.621,0,0,0,.908-.153,1.749,1.749,0,0,0,.654-.405.738.738,0,0,0,.231-.536.931.931,0,0,0-.222-.632,1.822,1.822,0,0,0-.721-.462,5.823,5.823,0,0,0-1.288-.307,6.086,6.086,0,0,1-1.359-.351,3.235,3.235,0,0,1-1-.612,2.442,2.442,0,0,1-.612-.886,2.994,2.994,0,0,1-.206-1.131,2.694,2.694,0,0,1,.494-1.627,3.072,3.072,0,0,1,1.319-1.022,4.637,4.637,0,0,1,1.812-.347,5.216,5.216,0,0,1,1.729.281A4.037,4.037,0,0,1,25,18.232a1.057,1.057,0,0,1,.45.836.924.924,0,0,1-.273.647.869.869,0,0,1-.651.291.741.741,0,0,1-.453-.151A2.438,2.438,0,0,0,23.5,19.5a5.331,5.331,0,0,0-.78-.287,2.781,2.781,0,0,0-.75-.114,2.821,2.821,0,0,0-.971.146,1.262,1.262,0,0,0-.568.38.84.84,0,0,0-.183.539.871.871,0,0,0,.212.609,1.551,1.551,0,0,0,.655.4,8.063,8.063,0,0,0,1.089.282,11.826,11.826,0,0,1,1.493.367,3.64,3.64,0,0,1,1.1.56,2.171,2.171,0,0,1,.668.876,3.242,3.242,0,0,1,.219,1.26,2.637,2.637,0,0,1-.529,1.644,3.379,3.379,0,0,1-1.373,1.047A4.617,4.617,0,0,1,21.954,27.565Zm-2.828-2.659a.645.645,0,0,0-.491.205.679.679,0,0,0-.2.482.733.733,0,0,0,.085.335.974.974,0,0,0,.248.311,4.126,4.126,0,0,0,1.455.837,5.781,5.781,0,0,0,1.727.239,4.357,4.357,0,0,0,1.721-.339,3.119,3.119,0,0,0,1.273-.969,2.387,2.387,0,0,0,.478-1.492,2.989,2.989,0,0,0-.2-1.162,1.916,1.916,0,0,0-.592-.777,3.321,3.321,0,0,0-1.019-.518,11.056,11.056,0,0,0-1.46-.36,8.285,8.285,0,0,1-1.125-.292,1.785,1.785,0,0,1-.759-.469A1.125,1.125,0,0,1,20,20.161a1.086,1.086,0,0,1,.237-.693,1.493,1.493,0,0,1,.677-.46,3.154,3.154,0,0,1,1.877-.038,5.411,5.411,0,0,1,.816.3,2.652,2.652,0,0,1,.632.39.482.482,0,0,0,.295.095.62.62,0,0,0,.47-.213.673.673,0,0,0,.2-.475.809.809,0,0,0-.359-.643,3.805,3.805,0,0,0-1.231-.673,4.958,4.958,0,0,0-1.646-.267,4.378,4.378,0,0,0-1.714.328,2.814,2.814,0,0,0-1.215.937,2.456,2.456,0,0,0-.446,1.481,2.751,2.751,0,0,0,.187,1.038,2.223,2.223,0,0,0,.551.8,2.954,2.954,0,0,0,.921.564,5.8,5.8,0,0,0,1.3.335,6.146,6.146,0,0,1,1.343.322,2.054,2.054,0,0,1,.82.532,1.19,1.19,0,0,1,.282.795.991.991,0,0,1-.3.71,1.959,1.959,0,0,1-.746.465,2.851,2.851,0,0,1-1,.169,3.446,3.446,0,0,1-1.344-.234,4.578,4.578,0,0,1-1.087-.676A.614.614,0,0,0,19.126,24.906Z"/><path d="M29.429,36.744H8.571a5.259,5.259,0,0,1-5.252-5.252V6.509A5.259,5.259,0,0,1,8.571,1.256h13.32A5.239,5.239,0,0,1,25.615,2.8l7.521,7.515a5.3,5.3,0,0,1,1.545,3.728V31.492A5.259,5.259,0,0,1,29.429,36.744ZM8.571,3.756A2.757,2.757,0,0,0,5.819,6.509V31.492a2.756,2.756,0,0,0,2.752,2.752H29.429a2.756,2.756,0,0,0,2.752-2.752V14.04a2.786,2.786,0,0,0-.811-1.958L23.848,4.567a2.75,2.75,0,0,0-1.957-.811Z"/><path d="M32.32,13.72H27.665A5.24,5.24,0,0,1,22.43,8.485V2.51h2.5V8.485a2.738,2.738,0,0,0,2.735,2.735H32.32Z"/></svg>